<svg xmlns="http://www.w3.org/2000/svg" width="100%" viewBox="0 0 680 204">
<rect x="32" y="48" width="47" height="38" rx="2" fill="#238636" opacity="1"/>
<text x="55" y="45" font-family="monospace" font-size="8" fill="#238636" text-anchor="middle">273k</text>
<text x="55" y="100" font-family="monospace" font-size="9" fill="#484f58" text-anchor="middle" opacity="0.5">Jan</text>
<rect x="85" y="60" width="47" height="26" rx="2" fill="#238636" opacity="1"/>
<text x="108" y="57" font-family="monospace" font-size="8" fill="#238636" text-anchor="middle">185k</text>
<text x="108" y="100" font-family="monospace" font-size="9" fill="#484f58" text-anchor="middle" opacity="0.5">Feb</text>
<rect x="138" y="23" width="47" height="63" rx="2" fill="#3fb950" opacity="1"/>
<text x="161" y="20" font-family="monospace" font-size="8" fill="#3fb950" text-anchor="middle">446k</text>
<text x="161" y="100" font-family="monospace" font-size="9" fill="#484f58" text-anchor="middle" opacity="0.5">Mar</text>
<rect x="191" y="56" width="47" height="30" rx="2" fill="#238636" opacity="1"/>
<text x="214" y="53" font-family="monospace" font-size="8" fill="#238636" text-anchor="middle">218k</text>
<text x="214" y="100" font-family="monospace" font-size="9" fill="#484f58" text-anchor="middle" opacity="0.5">Apr</text>
<rect x="244" y="72" width="47" height="14" rx="2" fill="#238636" opacity="1"/>
<text x="267" y="69" font-family="monospace" font-size="8" fill="#238636" text-anchor="middle">99k</text>
<text x="267" y="100" font-family="monospace" font-size="9" fill="#484f58" text-anchor="middle" opacity="0.5">May</text>
<rect x="297" y="51" width="47" height="35" rx="2" fill="#238636" opacity="1"/>
<text x="320" y="48" font-family="monospace" font-size="8" fill="#238636" text-anchor="middle">248k</text>
<text x="320" y="100" font-family="monospace" font-size="9" fill="#484f58" text-anchor="middle" opacity="0.5">Jun</text>
<rect x="350" y="16" width="47" height="70" rx="2" fill="#3fb950" opacity="1"/>
<text x="373" y="13" font-family="monospace" font-size="8" fill="#3fb950" text-anchor="middle">495k</text>
<text x="373" y="100" font-family="monospace" font-size="9" fill="#484f58" text-anchor="middle" opacity="0.5">Jul</text>
<rect x="403" y="84" width="47" height="2" rx="2" fill="#1c2128" opacity="0.2"/>
<text x="426" y="100" font-family="monospace" font-size="9" fill="#484f58" text-anchor="middle" opacity="0.5">Aug</text>
<rect x="456" y="84" width="47" height="2" rx="2" fill="#1c2128" opacity="0.2"/>
<text x="479" y="100" font-family="monospace" font-size="9" fill="#484f58" text-anchor="middle" opacity="0.5">Sep</text>
<rect x="509" y="84" width="47" height="2" rx="2" fill="#1c2128" opacity="0.2"/>
<text x="532" y="100" font-family="monospace" font-size="9" fill="#484f58" text-anchor="middle" opacity="0.5">Oct</text>
<rect x="562" y="84" width="47" height="2" rx="2" fill="#1c2128" opacity="0.2"/>
<text x="585" y="100" font-family="monospace" font-size="9" fill="#484f58" text-anchor="middle" opacity="0.5">Nov</text>
<rect x="615" y="84" width="47" height="2" rx="2" fill="#1c2128" opacity="0.2"/>
<text x="638" y="100" font-family="monospace" font-size="9" fill="#484f58" text-anchor="middle" opacity="0.5">Dec</text>
<line x1="32" y1="114" x2="664" y2="114" stroke="#21262d" stroke-width="1" opacity="0.6"/>
<rect x="32" y="161" width="83" height="13" rx="2" fill="#238636"/>
<text x="73" y="158" font-family="monospace" font-size="8" fill="#238636" text-anchor="middle">21,926</text>
<text x="73" y="188" font-family="monospace" font-size="9" fill="#484f58" text-anchor="middle" opacity="0.5">Tue</text>
<rect x="123" y="126" width="83" height="48" rx="2" fill="#3fb950"/>
<text x="164" y="123" font-family="monospace" font-size="8" fill="#3fb950" text-anchor="middle">79,037</text>
<text x="164" y="188" font-family="monospace" font-size="9" fill="#484f58" text-anchor="middle" opacity="0.5">Wed</text>
<rect x="214" y="134" width="83" height="40" rx="2" fill="#3fb950"/>
<text x="255" y="131" font-family="monospace" font-size="8" fill="#3fb950" text-anchor="middle">66,116</text>
<text x="255" y="188" font-family="monospace" font-size="9" fill="#484f58" text-anchor="middle" opacity="0.5">Thu</text>
<rect x="305" y="140" width="83" height="34" rx="2" fill="#3fb950"/>
<text x="346" y="137" font-family="monospace" font-size="8" fill="#3fb950" text-anchor="middle">56,660</text>
<text x="346" y="188" font-family="monospace" font-size="9" fill="#484f58" text-anchor="middle" opacity="0.5">Fri</text>
<rect x="396" y="145" width="83" height="29" rx="2" fill="#3fb950"/>
<text x="437" y="142" font-family="monospace" font-size="8" fill="#3fb950" text-anchor="middle">49,027</text>
<text x="437" y="188" font-family="monospace" font-size="9" fill="#484f58" text-anchor="middle" opacity="0.5">Sat</text>
<rect x="487" y="136" width="83" height="38" rx="2" fill="#3fb950"/>
<text x="528" y="133" font-family="monospace" font-size="8" fill="#3fb950" text-anchor="middle">64,153</text>
<text x="528" y="188" font-family="monospace" font-size="9" fill="#484f58" text-anchor="middle" opacity="0.5">Sun</text>
<rect x="578" y="172" width="83" height="2" rx="2" fill="#1c2128"/>
<text x="619" y="188" font-family="monospace" font-size="9" fill="#484f58" text-anchor="middle" opacity="0.5">Mon</text>
</svg>