<svg xmlns="http://www.w3.org/2000/svg" width="100%" viewBox="0 0 680 386">
<rect width="680" height="386" fill="#0d1117"/>
<text x="80" y="22" font-family="monospace" font-size="11" fill="#484f58" letter-spacing="0.08em">DAILY LINES ADDED · LAST 14 DAYS</text>
<text x="72" y="55" font-family="monospace" font-size="11" fill="#484f58" text-anchor="end">Mar 08</text>
<rect x="80" y="44" width="540" height="14" rx="2" fill="#161b22"/>
<text x="628" y="55" font-family="monospace" font-size="11" fill="#30363d" text-anchor="start">0</text>
<text x="72" y="78" font-family="monospace" font-size="11" fill="#484f58" text-anchor="end">Mar 09</text>
<rect x="80" y="67" width="540" height="14" rx="2" fill="#161b22"/>
<text x="628" y="78" font-family="monospace" font-size="11" fill="#30363d" text-anchor="start">0</text>
<text x="72" y="101" font-family="monospace" font-size="11" fill="#484f58" text-anchor="end">Mar 10</text>
<rect x="80" y="90" width="540" height="14" rx="2" fill="#161b22"/>
<text x="628" y="101" font-family="monospace" font-size="11" fill="#30363d" text-anchor="start">0</text>
<text x="72" y="124" font-family="monospace" font-size="11" fill="#484f58" text-anchor="end">Mar 11</text>
<rect x="80" y="113" width="540" height="14" rx="2" fill="#161b22"/>
<text x="628" y="124" font-family="monospace" font-size="11" fill="#30363d" text-anchor="start">0</text>
<text x="72" y="147" font-family="monospace" font-size="11" fill="#484f58" text-anchor="end">Mar 12</text>
<rect x="80" y="136" width="540" height="14" rx="2" fill="#161b22"/>
<text x="628" y="147" font-family="monospace" font-size="11" fill="#30363d" text-anchor="start">0</text>
<text x="72" y="170" font-family="monospace" font-size="11" fill="#484f58" text-anchor="end">Mar 13</text>
<rect x="80" y="159" width="540" height="14" rx="2" fill="#161b22"/>
<text x="628" y="170" font-family="monospace" font-size="11" fill="#30363d" text-anchor="start">0</text>
<text x="72" y="193" font-family="monospace" font-size="11" fill="#484f58" text-anchor="end">Mar 14</text>
<rect x="80" y="182" width="540" height="14" rx="2" fill="#161b22"/>
<text x="628" y="193" font-family="monospace" font-size="11" fill="#30363d" text-anchor="start">0</text>
<text x="72" y="216" font-family="monospace" font-size="11" fill="#484f58" text-anchor="end">Mar 15</text>
<rect x="80" y="205" width="540" height="14" rx="2" fill="#161b22"/>
<text x="628" y="216" font-family="monospace" font-size="11" fill="#30363d" text-anchor="start">0</text>
<text x="72" y="239" font-family="monospace" font-size="11" fill="#484f58" text-anchor="end">Mar 16</text>
<rect x="80" y="228" width="540" height="14" rx="2" fill="#161b22"/>
<text x="628" y="239" font-family="monospace" font-size="11" fill="#30363d" text-anchor="start">0</text>
<text x="72" y="262" font-family="monospace" font-size="11" fill="#484f58" text-anchor="end">Mar 17</text>
<rect x="80" y="251" width="540" height="14" rx="2" fill="#161b22"/>
<text x="628" y="262" font-family="monospace" font-size="11" fill="#30363d" text-anchor="start">0</text>
<text x="72" y="285" font-family="monospace" font-size="11" fill="#484f58" text-anchor="end">Mar 18</text>
<rect x="80" y="274" width="540" height="14" rx="2" fill="#161b22"/>
<text x="628" y="285" font-family="monospace" font-size="11" fill="#30363d" text-anchor="start">0</text>
<text x="72" y="308" font-family="monospace" font-size="11" fill="#484f58" text-anchor="end">Mar 19</text>
<rect x="80" y="297" width="540" height="14" rx="2" fill="#161b22"/>
<text x="628" y="308" font-family="monospace" font-size="11" fill="#30363d" text-anchor="start">0</text>
<text x="72" y="331" font-family="monospace" font-size="11" fill="#484f58" text-anchor="end">Mar 20</text>
<rect x="80" y="320" width="540" height="14" rx="2" fill="#161b22"/>
<text x="628" y="331" font-family="monospace" font-size="11" fill="#30363d" text-anchor="start">0</text>
<text x="72" y="354" font-family="monospace" font-size="11" fill="#484f58" text-anchor="end">Mar 21</text>
<rect x="80" y="343" width="540" height="14" rx="2" fill="#161b22"/>
<rect x="80" y="343" width="540" height="14" rx="2" fill="#39d353"/>
<text x="628" y="354" font-family="monospace" font-size="11" fill="#39d353" text-anchor="start">290</text>
</svg>