<svg xmlns="http://www.w3.org/2000/svg" width="1000" height="452" viewBox="0 0 1000 452">\n<rect width="1000" height="452" rx="12" fill="#0d1117"/>\n<text x="500" y="24" text-anchor="middle" fill="#8b949e" font-family="monospace" font-size="13">Daily Lines Added (last 14 days)</text>\n<text x="62" y="56" text-anchor="end" fill="#8b949e" font-family="monospace" font-size="12">Feb 21</text>\n<rect x="70" y="40" width="870" height="22" rx="4" fill="#161b22"/>\n<text x="948" y="56" fill="#58a6ff" font-family="monospace" font-size="12">0</text>\n<text x="62" y="84" text-anchor="end" fill="#8b949e" font-family="monospace" font-size="12">Feb 22</text>\n<rect x="70" y="68" width="870" height="22" rx="4" fill="#161b22"/>\n<text x="948" y="84" fill="#58a6ff" font-family="monospace" font-size="12">0</text>\n<text x="62" y="112" text-anchor="end" fill="#8b949e" font-family="monospace" font-size="12">Feb 23</text>\n<rect x="70" y="96" width="870" height="22" rx="4" fill="#161b22"/>\n<text x="948" y="112" fill="#58a6ff" font-family="monospace" font-size="12">0</text>\n<text x="62" y="140" text-anchor="end" fill="#8b949e" font-family="monospace" font-size="12">Feb 24</text>\n<rect x="70" y="124" width="870" height="22" rx="4" fill="#161b22"/>\n<text x="948" y="140" fill="#58a6ff" font-family="monospace" font-size="12">0</text>\n<text x="62" y="168" text-anchor="end" fill="#8b949e" font-family="monospace" font-size="12">Feb 25</text>\n<rect x="70" y="152" width="870" height="22" rx="4" fill="#161b22"/>\n<text x="948" y="168" fill="#58a6ff" font-family="monospace" font-size="12">0</text>\n<text x="62" y="196" text-anchor="end" fill="#8b949e" font-family="monospace" font-size="12">Feb 26</text>\n<rect x="70" y="180" width="870" height="22" rx="4" fill="#161b22"/>\n<text x="948" y="196" fill="#58a6ff" font-family="monospace" font-size="12">0</text>\n<text x="62" y="224" text-anchor="end" fill="#8b949e" font-family="monospace" font-size="12">Feb 27</text>\n<rect x="70" y="208" width="870" height="22" rx="4" fill="#161b22"/>\n<text x="948" y="224" fill="#58a6ff" font-family="monospace" font-size="12">0</text>\n<text x="62" y="252" text-anchor="end" fill="#8b949e" font-family="monospace" font-size="12">Feb 28</text>\n<rect x="70" y="236" width="870" height="22" rx="4" fill="#161b22"/>\n<text x="948" y="252" fill="#58a6ff" font-family="monospace" font-size="12">0</text>\n<text x="62" y="280" text-anchor="end" fill="#8b949e" font-family="monospace" font-size="12">Mar 01</text>\n<rect x="70" y="264" width="870" height="22" rx="4" fill="#161b22"/>\n<text x="948" y="280" fill="#58a6ff" font-family="monospace" font-size="12">0</text>\n<text x="62" y="308" text-anchor="end" fill="#8b949e" font-family="monospace" font-size="12">Mar 02</text>\n<rect x="70" y="292" width="870" height="22" rx="4" fill="#161b22"/>\n<text x="948" y="308" fill="#58a6ff" font-family="monospace" font-size="12">0</text>\n<text x="62" y="336" text-anchor="end" fill="#8b949e" font-family="monospace" font-size="12">Mar 03</text>\n<rect x="70" y="320" width="870" height="22" rx="4" fill="#161b22"/>\n<text x="948" y="336" fill="#58a6ff" font-family="monospace" font-size="12">0</text>\n<text x="62" y="364" text-anchor="end" fill="#8b949e" font-family="monospace" font-size="12">Mar 04</text>\n<rect x="70" y="348" width="870" height="22" rx="4" fill="#161b22"/>\n<text x="948" y="364" fill="#58a6ff" font-family="monospace" font-size="12">0</text>\n<text x="62" y="392" text-anchor="end" fill="#8b949e" font-family="monospace" font-size="12">Mar 05</text>\n<rect x="70" y="376" width="870" height="22" rx="4" fill="#161b22"/>\n<text x="948" y="392" fill="#58a6ff" font-family="monospace" font-size="12">0</text>\n<text x="62" y="420" text-anchor="end" fill="#8b949e" font-family="monospace" font-size="12">Mar 06</text>\n<rect x="70" y="404" width="870" height="22" rx="4" fill="#161b22"/>\n<text x="948" y="420" fill="#58a6ff" font-family="monospace" font-size="12">0</text>\n</svg>