<svg xmlns="http://www.w3.org/2000/svg" width="100%" viewBox="0 0 680 328">
<text x="52" y="18" font-family="monospace" font-size="10" fill="#484f58" letter-spacing="0.1em" opacity="0.6">DAILY LINES ADDED</text>
<text x="46" y="40" font-family="monospace" font-size="10" fill="#484f58" text-anchor="end" opacity="0.5">Mar 08</text>
<rect x="52" y="34" width="580" height="2" fill="#21262d" opacity="0.4"/>
<text x="46" y="60" font-family="monospace" font-size="10" fill="#484f58" text-anchor="end" opacity="0.5">Mar 09</text>
<rect x="52" y="54" width="580" height="2" fill="#21262d" opacity="0.4"/>
<text x="46" y="80" font-family="monospace" font-size="10" fill="#484f58" text-anchor="end" opacity="0.5">Mar 10</text>
<rect x="52" y="74" width="580" height="2" fill="#21262d" opacity="0.4"/>
<text x="46" y="100" font-family="monospace" font-size="10" fill="#484f58" text-anchor="end" opacity="0.5">Mar 11</text>
<rect x="52" y="94" width="580" height="2" fill="#21262d" opacity="0.4"/>
<text x="46" y="120" font-family="monospace" font-size="10" fill="#484f58" text-anchor="end" opacity="0.5">Mar 12</text>
<rect x="52" y="114" width="580" height="2" fill="#21262d" opacity="0.4"/>
<text x="46" y="140" font-family="monospace" font-size="10" fill="#484f58" text-anchor="end" opacity="0.5">Mar 13</text>
<rect x="52" y="134" width="580" height="2" fill="#21262d" opacity="0.4"/>
<text x="46" y="160" font-family="monospace" font-size="10" fill="#484f58" text-anchor="end" opacity="0.5">Mar 14</text>
<rect x="52" y="154" width="580" height="2" fill="#21262d" opacity="0.4"/>
<text x="46" y="180" font-family="monospace" font-size="10" fill="#484f58" text-anchor="end" opacity="0.5">Mar 15</text>
<rect x="52" y="174" width="580" height="2" fill="#21262d" opacity="0.4"/>
<text x="46" y="200" font-family="monospace" font-size="10" fill="#484f58" text-anchor="end" opacity="0.5">Mar 16</text>
<rect x="52" y="194" width="580" height="2" fill="#21262d" opacity="0.4"/>
<text x="46" y="220" font-family="monospace" font-size="10" fill="#484f58" text-anchor="end" opacity="0.5">Mar 17</text>
<rect x="52" y="214" width="580" height="2" fill="#21262d" opacity="0.4"/>
<text x="46" y="240" font-family="monospace" font-size="10" fill="#484f58" text-anchor="end" opacity="0.5">Mar 18</text>
<rect x="52" y="234" width="580" height="2" fill="#21262d" opacity="0.4"/>
<text x="46" y="260" font-family="monospace" font-size="10" fill="#484f58" text-anchor="end" opacity="0.5">Mar 19</text>
<rect x="52" y="254" width="580" height="2" fill="#21262d" opacity="0.4"/>
<text x="46" y="280" font-family="monospace" font-size="10" fill="#484f58" text-anchor="end" opacity="0.5">Mar 20</text>
<rect x="52" y="274" width="580" height="2" fill="#21262d" opacity="0.4"/>
<text x="46" y="300" font-family="monospace" font-size="10" fill="#484f58" text-anchor="end" opacity="0.5">Mar 21</text>
<rect x="52" y="294" width="580" height="2" fill="#21262d" opacity="0.4"/>
<rect x="52" y="292" width="580" height="6" rx="1" fill="#3fb950"/>
<text x="638" y="300" font-family="monospace" font-size="10" fill="#3fb950" text-anchor="start">319</text>
</svg>