<svg xmlns="http://www.w3.org/2000/svg" width="1000" height="452" viewBox="0 0 1000 452">\n<rect width="1000" height="452" rx="12" fill="#0d1117"/>\n<text x="500" y="24" text-anchor="middle" fill="#8b949e" font-family="monospace" font-size="13">Daily Lines Added (last 14 days)</text>\n<text x="62" y="56" text-anchor="end" fill="#8b949e" font-family="monospace" font-size="12">Feb 04</text>\n<rect x="70" y="40" width="870" height="22" rx="4" fill="#161b22"/>\n<rect x="70" y="40" width="299" height="22" rx="4" fill="#006d32"/>\n<text x="948" y="56" fill="#58a6ff" font-family="monospace" font-size="12">7,016</text>\n<text x="62" y="84" text-anchor="end" fill="#8b949e" font-family="monospace" font-size="12">Feb 05</text>\n<rect x="70" y="68" width="870" height="22" rx="4" fill="#161b22"/>\n<rect x="70" y="68" width="213" height="22" rx="4" fill="#0e4429"/>\n<text x="948" y="84" fill="#58a6ff" font-family="monospace" font-size="12">4,999</text>\n<text x="62" y="112" text-anchor="end" fill="#8b949e" font-family="monospace" font-size="12">Feb 06</text>\n<rect x="70" y="96" width="870" height="22" rx="4" fill="#161b22"/>\n<rect x="70" y="96" width="274" height="22" rx="4" fill="#006d32"/>\n<text x="948" y="112" fill="#58a6ff" font-family="monospace" font-size="12">6,422</text>\n<text x="62" y="140" text-anchor="end" fill="#8b949e" font-family="monospace" font-size="12">Feb 07</text>\n<rect x="70" y="124" width="870" height="22" rx="4" fill="#161b22"/>\n<rect x="70" y="124" width="111" height="22" rx="4" fill="#0e4429"/>\n<text x="948" y="140" fill="#58a6ff" font-family="monospace" font-size="12">2,604</text>\n<text x="62" y="168" text-anchor="end" fill="#8b949e" font-family="monospace" font-size="12">Feb 08</text>\n<rect x="70" y="152" width="870" height="22" rx="4" fill="#161b22"/>\n<rect x="70" y="152" width="29" height="22" rx="4" fill="#0e4429"/>\n<text x="948" y="168" fill="#58a6ff" font-family="monospace" font-size="12">701</text>\n<text x="62" y="196" text-anchor="end" fill="#8b949e" font-family="monospace" font-size="12">Feb 09</text>\n<rect x="70" y="180" width="870" height="22" rx="4" fill="#161b22"/>\n<rect x="70" y="180" width="304" height="22" rx="4" fill="#006d32"/>\n<text x="948" y="196" fill="#58a6ff" font-family="monospace" font-size="12">7,122</text>\n<text x="62" y="224" text-anchor="end" fill="#8b949e" font-family="monospace" font-size="12">Feb 10</text>\n<rect x="70" y="208" width="870" height="22" rx="4" fill="#161b22"/>\n<rect x="70" y="208" width="149" height="22" rx="4" fill="#0e4429"/>\n<text x="948" y="224" fill="#58a6ff" font-family="monospace" font-size="12">3,498</text>\n<text x="62" y="252" text-anchor="end" fill="#8b949e" font-family="monospace" font-size="12">Feb 11</text>\n<rect x="70" y="236" width="870" height="22" rx="4" fill="#161b22"/>\n<rect x="70" y="236" width="227" height="22" rx="4" fill="#006d32"/>\n<text x="948" y="252" fill="#58a6ff" font-family="monospace" font-size="12">5,333</text>\n<text x="62" y="280" text-anchor="end" fill="#8b949e" font-family="monospace" font-size="12">Feb 12</text>\n<rect x="70" y="264" width="870" height="22" rx="4" fill="#161b22"/>\n<rect x="70" y="264" width="870" height="22" rx="4" fill="#39d353"/>\n<text x="948" y="280" fill="#58a6ff" font-family="monospace" font-size="12">20,357</text>\n<text x="62" y="308" text-anchor="end" fill="#8b949e" font-family="monospace" font-size="12">Feb 13</text>\n<rect x="70" y="292" width="870" height="22" rx="4" fill="#161b22"/>\n<rect x="70" y="292" width="310" height="22" rx="4" fill="#006d32"/>\n<text x="948" y="308" fill="#58a6ff" font-family="monospace" font-size="12">7,254</text>\n<text x="62" y="336" text-anchor="end" fill="#8b949e" font-family="monospace" font-size="12">Feb 14</text>\n<rect x="70" y="320" width="870" height="22" rx="4" fill="#161b22"/>\n<rect x="70" y="320" width="309" height="22" rx="4" fill="#006d32"/>\n<text x="948" y="336" fill="#58a6ff" font-family="monospace" font-size="12">7,251</text>\n<text x="62" y="364" text-anchor="end" fill="#8b949e" font-family="monospace" font-size="12">Feb 15</text>\n<rect x="70" y="348" width="870" height="22" rx="4" fill="#161b22"/>\n<rect x="70" y="348" width="132" height="22" rx="4" fill="#0e4429"/>\n<text x="948" y="364" fill="#58a6ff" font-family="monospace" font-size="12">3,102</text>\n<text x="62" y="392" text-anchor="end" fill="#8b949e" font-family="monospace" font-size="12">Feb 16</text>\n<rect x="70" y="376" width="870" height="22" rx="4" fill="#161b22"/>\n<rect x="70" y="376" width="525" height="22" rx="4" fill="#26a641"/>\n<text x="948" y="392" fill="#58a6ff" font-family="monospace" font-size="12">12,302</text>\n<text x="62" y="420" text-anchor="end" fill="#8b949e" font-family="monospace" font-size="12">Feb 17</text>\n<rect x="70" y="404" width="870" height="22" rx="4" fill="#161b22"/>\n<rect x="70" y="404" width="534" height="22" rx="4" fill="#26a641"/>\n<text x="948" y="420" fill="#58a6ff" font-family="monospace" font-size="12">12,497</text>\n</svg>